<?xml version="1.0" encoding="utf-8"?>
<!-- Generator: Adobe Illustrator 23.0.2, SVG Export Plug-In . SVG Version: 6.00 Build 0)  -->
<svg version="1.1" id="Layer_1" xmlns="http://www.w3.org/2000/svg" xmlns:xlink="http://www.w3.org/1999/xlink" x="0px" y="0px"
	 viewBox="0 0 279.3 82" style="enable-background:new 0 0 279.3 82;" xml:space="preserve">
<style type="text/css">
	.st0{opacity:0.2;fill:#FFFFFF;enable-background:new    ;}
	.st1{fill:#FFFFFF;}
</style>
<path class="st0" d="M37.4,0L37.4,0c20.7,0,37.4,16.8,37.4,37.4l0,0c0,20.7-16.8,37.4-37.4,37.4l0,0C16.8,74.8,0,58.1,0,37.4l0,0
	C0,16.8,16.8,0,37.4,0z"/>
<path class="st1" d="M57.7,31.2L57.7,31.2c13.8,0,24.9,11.2,24.9,24.9l0,0C82.6,69.9,71.4,81,57.7,81l0,0
	c-13.8,0-24.9-11.2-24.9-24.9l0,0C32.7,42.3,43.9,31.2,57.7,31.2z"/>
<g>
	<path class="st1" d="M111.4,43.1c0,0.8-0.1,1.6-0.5,2.6c-0.4,0.9-0.9,1.8-1.8,2.7c-0.8,0.8-1.9,1.6-3.1,2.2
		c-1.4,0.5-2.8,0.8-4.5,0.8c-1.4,0-2.4-0.1-3.5-0.4c-1.1-0.3-2-0.7-2.8-1.1c-0.8-0.5-1.6-1.2-2.4-2c-0.7-0.8-1.2-1.6-1.6-2.6
		c-0.4-0.9-0.8-2-1.1-3.1c-0.3-1.1-0.4-2.3-0.4-3.5c0-2,0.3-3.8,0.8-5.3c0.5-1.6,1.4-2.8,2.4-4.1c1.1-1.1,2.3-1.9,3.8-2.6
		c1.5-0.5,3-0.8,4.6-0.8c2,0,3.8,0.4,5.3,1.2c1.5,0.8,2.7,1.8,3.5,3c0.8,1.2,1.2,2.3,1.2,3.3c0,0.5-0.1,1.1-0.5,1.5
		s-0.9,0.7-1.5,0.7c-0.7,0-1.1-0.1-1.5-0.4c-0.4-0.3-0.7-0.8-1.1-1.6c-0.7-1.2-1.4-2.2-2.3-2.7c-0.8-0.5-1.9-0.9-3.3-0.9
		c-2,0-3.7,0.8-4.9,2.3c-1.2,1.5-1.8,3.8-1.8,6.6c0,1.9,0.3,3.5,0.8,4.7c0.5,1.2,1.4,2.2,2.3,2.8c0.9,0.7,2.2,0.9,3.5,0.9
		c1.5,0,2.7-0.4,3.7-1.1c0.9-0.7,1.8-1.8,2.3-3.1c0.3-0.7,0.5-1.2,0.8-1.6c0.3-0.4,0.8-0.7,1.5-0.7c0.5,0,1.1,0.3,1.5,0.7
		C111.3,41.8,111.4,42.5,111.4,43.1z"/>
	<path class="st1" d="M115.6,48.5V28.7c0-0.9,0.3-1.6,0.7-2c0.4-0.4,0.9-0.7,1.6-0.7c0.7,0,1.2,0.3,1.6,0.7c0.4,0.4,0.7,1.2,0.7,2
		v19.9c0,0.9-0.3,1.6-0.7,2c-0.4,0.4-0.9,0.7-1.6,0.7c-0.7,0-1.2-0.3-1.6-0.7C115.9,50.1,115.6,49.4,115.6,48.5z"/>
	<path class="st1" d="M142.2,42c0,1.4-0.3,2.6-0.7,3.8c-0.4,1.2-1.1,2.2-1.9,3s-1.8,1.5-2.8,1.9c-1.1,0.4-2.4,0.7-3.8,0.7
		c-1.4,0-2.6-0.3-3.8-0.7c-1.1-0.4-2-1.1-2.8-1.9s-1.5-1.8-1.9-3c-0.4-1.1-0.7-2.4-0.7-3.8c0-1.4,0.3-2.7,0.7-3.8
		c0.4-1.2,1.1-2.2,1.9-3c0.8-0.8,1.8-1.5,2.8-1.9c1.1-0.4,2.4-0.7,3.8-0.7c1.4,0,2.7,0.3,3.8,0.7c1.1,0.4,2,1.1,2.8,1.9
		c0.8,0.8,1.4,1.8,1.9,3C141.9,39.4,142.2,40.6,142.2,42z M137.6,42c0-1.9-0.4-3.4-1.2-4.3c-0.8-0.9-1.9-1.6-3.3-1.6
		c-0.9,0-1.6,0.3-2.3,0.7c-0.7,0.4-1.2,1.1-1.6,2c-0.4,0.9-0.5,2-0.5,3.1c0,1.2,0.1,2.3,0.5,3.1c0.4,0.9,0.9,1.6,1.6,2
		c0.7,0.4,1.5,0.7,2.4,0.7c1.4,0,2.4-0.5,3.3-1.6C137.3,45,137.6,43.9,137.6,42z"/>
	<path class="st1" d="M157.7,48.8v-0.7c-0.5,0.7-1.1,1.2-1.8,1.8c-0.5,0.4-1.2,0.8-2,1.1c-0.7,0.3-1.5,0.4-2.4,0.4
		c-1.1,0-2.2-0.3-3-0.7c-0.8-0.4-1.6-1.1-2-1.9c-0.5-0.9-0.8-2.4-0.8-4.2v-9.1c0-0.9,0.3-1.6,0.7-2s0.9-0.7,1.6-0.7
		c0.7,0,1.2,0.3,1.6,0.7c0.4,0.4,0.7,1.1,0.7,2v7.3c0,1.1,0.1,1.9,0.3,2.7c0.1,0.7,0.5,1.4,0.9,1.8c0.4,0.4,1.1,0.7,1.9,0.7
		c0.8,0,1.5-0.3,2.2-0.7c0.7-0.4,1.2-1.1,1.5-1.8c0.3-0.7,0.4-2,0.4-4.2v-5.6c0-0.9,0.3-1.6,0.7-2c0.4-0.4,0.9-0.7,1.6-0.7
		c0.7,0,1.2,0.3,1.6,0.7s0.7,1.1,0.7,2V49c0,0.8-0.1,1.5-0.5,1.9c-0.4,0.4-0.9,0.7-1.5,0.7c-0.7,0-1.1-0.3-1.5-0.7
		C157.9,50.1,157.7,49.6,157.7,48.8z"/>
	<path class="st1" d="M179.1,48.6v-0.4c-0.7,0.7-1.2,1.2-1.8,1.8c-0.5,0.4-1.2,0.8-1.9,0.9c-0.7,0.3-1.5,0.4-2.3,0.4
		c-1.1,0-2.2-0.3-3-0.7c-0.8-0.4-1.8-1.1-2.4-2c-0.7-0.8-1.2-1.9-1.5-3c-0.4-1.2-0.5-2.4-0.5-3.8c0-2.8,0.7-5.2,2-6.6
		c1.4-1.5,3.3-2.4,5.6-2.4c1.4,0,2.4,0.3,3.4,0.7c0.9,0.4,1.8,1.1,2.7,2v-6.8c0-0.9,0.1-1.6,0.5-2.2c0.4-0.5,0.9-0.7,1.6-0.7
		c0.7,0,1.2,0.3,1.6,0.7c0.4,0.4,0.5,1.1,0.5,1.9v20.2c0,0.8-0.1,1.5-0.5,1.9c-0.4,0.4-0.9,0.7-1.6,0.7c-0.7,0-1.1-0.3-1.5-0.7
		C179.4,50.1,179.1,49.6,179.1,48.6z M170.1,42c0,1.2,0.1,2.3,0.5,3.1c0.4,0.8,0.9,1.5,1.6,2c0.7,0.4,1.4,0.7,2.2,0.7
		s1.5-0.3,2.2-0.7c0.7-0.4,1.2-1.1,1.6-1.9c0.4-0.8,0.5-1.9,0.5-3.3c0-1.2-0.1-2.3-0.5-3.1c-0.4-0.8-0.9-1.5-1.6-2
		c-0.7-0.4-1.4-0.7-2.2-0.7s-1.6,0.3-2.3,0.7c-0.7,0.5-1.2,1.2-1.5,2C170.3,39.7,170.1,40.8,170.1,42z"/>
	<path class="st1" d="M203.5,28.8l9.6,14.5V28.7c0-0.9,0.3-1.6,0.7-2.2c0.4-0.5,0.9-0.7,1.6-0.7c0.7,0,1.2,0.3,1.8,0.7
		c0.5,0.4,0.7,1.2,0.7,2.2v19.4c0,2.2-0.9,3.3-2.7,3.3c-0.4,0-0.8,0-1.2-0.1c-0.4-0.1-0.7-0.3-0.9-0.7c-0.3-0.3-0.5-0.5-0.8-0.9
		c-0.3-0.4-0.5-0.8-0.8-1.1L202,34.1v14.4c0,0.9-0.3,1.6-0.7,2.2c-0.4,0.5-0.9,0.7-1.6,0.7c-0.7,0-1.2-0.3-1.8-0.7
		c-0.4-0.5-0.7-1.2-0.7-2.2v-19c0-0.8,0.1-1.5,0.3-1.9c0.3-0.5,0.5-0.9,1.1-1.2c0.5-0.3,1.1-0.5,1.6-0.5c0.4,0,0.8,0.1,1.1,0.3
		c0.3,0.1,0.5,0.4,0.8,0.5c0.3,0.1,0.5,0.5,0.7,0.9C203,28,203.2,28.4,203.5,28.8z"/>
	<path class="st1" d="M235.6,43.1h-8.9c0,1.1,0.3,1.9,0.7,2.7c0.4,0.8,0.9,1.4,1.6,1.8s1.5,0.5,2.3,0.5c0.5,0,1.1,0,1.5-0.1
		c0.4-0.1,0.9-0.3,1.4-0.5c0.4-0.3,0.8-0.5,1.2-0.9c0.4-0.3,0.8-0.7,1.4-1.2c0.3-0.1,0.5-0.3,0.9-0.3s0.8,0.1,1.1,0.4
		c0.3,0.3,0.4,0.7,0.4,1.1c0,0.4-0.1,0.9-0.5,1.5c-0.3,0.5-0.8,1.1-1.5,1.6c-0.7,0.5-1.5,0.9-2.4,1.2c-0.9,0.3-2.2,0.5-3.4,0.5
		c-3,0-5.3-0.8-6.9-2.6c-1.6-1.8-2.4-3.9-2.4-6.8c0-1.4,0.1-2.6,0.5-3.8c0.4-1.2,0.9-2.2,1.8-3c0.8-0.8,1.8-1.5,2.8-1.9
		c1.1-0.4,2.4-0.7,3.8-0.7c1.8,0,3.4,0.4,4.6,1.1c1.2,0.8,2.3,1.8,2.8,3c0.5,1.2,0.9,2.4,0.9,3.7c0,1.2-0.3,1.9-0.9,2.3
		C237.7,42.9,236.9,43.1,235.6,43.1z M226.7,40.5h8.3c-0.1-1.6-0.5-2.7-1.2-3.5c-0.7-0.8-1.8-1.2-2.8-1.2c-1.1,0-2,0.4-2.8,1.2
		C227.2,37.8,226.8,39,226.7,40.5z"/>
	<path class="st1" d="M258,45.4c0,1.2-0.3,2.3-0.9,3.3c-0.7,0.9-1.5,1.6-2.7,2c-1.2,0.4-2.7,0.7-4.3,0.7c-1.6,0-3.1-0.3-4.2-0.8
		c-1.2-0.5-2-1.1-2.6-1.9c-0.5-0.8-0.8-1.5-0.8-2.3c0-0.5,0.1-0.9,0.5-1.4c0.4-0.4,0.8-0.5,1.4-0.5c0.5,0,0.8,0.1,1.1,0.4
		c0.3,0.3,0.5,0.5,0.7,0.9c0.4,0.8,1.1,1.5,1.6,1.9c0.7,0.4,1.5,0.5,2.7,0.5c0.9,0,1.6-0.3,2.3-0.7c0.7-0.4,0.9-0.8,0.9-1.4
		c0-0.8-0.3-1.4-0.9-1.8c-0.7-0.4-1.6-0.7-3-1.1c-1.6-0.4-2.8-0.8-3.8-1.2c-0.9-0.4-1.8-0.9-2.4-1.8c-0.5-0.7-0.9-1.6-0.9-2.6
		c0-0.9,0.3-1.8,0.8-2.6c0.5-0.8,1.4-1.5,2.4-1.9c1.1-0.4,2.3-0.7,3.9-0.7c1.2,0,2.3,0.1,3.3,0.4c0.9,0.3,1.8,0.5,2.3,0.9
		c0.7,0.4,1.1,0.8,1.5,1.4c0.3,0.5,0.5,0.9,0.5,1.5c0,0.5-0.1,0.9-0.5,1.4c-0.4,0.3-0.8,0.5-1.5,0.5c-0.4,0-0.8-0.1-1.2-0.4
		c-0.3-0.3-0.7-0.7-1.1-1.2c-0.4-0.4-0.8-0.8-1.2-1.1c-0.4-0.3-1.1-0.4-1.9-0.4c-0.8,0-1.5,0.1-2,0.5c-0.5,0.4-0.8,0.8-0.8,1.4
		c0,0.5,0.1,0.8,0.5,1.2c0.4,0.4,0.9,0.5,1.6,0.8c0.7,0.1,1.6,0.4,2.8,0.7c1.4,0.4,2.6,0.8,3.5,1.2c0.9,0.4,1.6,1.1,2,1.8
		C258,43.9,258,44.4,258,45.4z"/>
	<path class="st1" d="M262.2,33h0.5v-2.7c0-0.7,0-1.4,0-1.8c0-0.4,0.1-0.8,0.3-1.1c0.1-0.3,0.4-0.5,0.8-0.8c0.4-0.3,0.7-0.3,1.1-0.3
		c0.5,0,1.1,0.3,1.6,0.7c0.3,0.3,0.5,0.7,0.5,1.1c0.1,0.4,0.1,1.1,0.1,1.8V33h1.6c0.7,0,1.1,0.1,1.5,0.4c0.4,0.3,0.5,0.7,0.5,1.2
		c0,0.7-0.3,1.1-0.7,1.4c-0.5,0.3-1.2,0.4-2,0.4h-0.8v8.4c0,0.7,0,1.2,0.1,1.6c0.1,0.4,0.1,0.7,0.4,0.9s0.5,0.4,1.1,0.4
		c0.3,0,0.7,0,1.1-0.1c0.4-0.1,0.8-0.1,1.1-0.1c0.4,0,0.7,0.1,0.9,0.4c0.3,0.3,0.4,0.7,0.4,1.1c0,0.7-0.4,1.4-1.2,1.8
		c-0.8,0.4-2,0.5-3.5,0.5s-2.6-0.3-3.3-0.7c-0.7-0.5-1.2-1.1-1.5-2c-0.3-0.8-0.4-2-0.4-3.4v-8.8h-0.5c-0.7,0-1.2-0.1-1.5-0.4
		c-0.4-0.3-0.5-0.7-0.5-1.2c0-0.5,0.1-0.8,0.5-1.2C261,33.2,261.4,33,262.2,33z"/>
</g>
</svg>
