<?xml version="1.0" encoding="utf-8"?>
<!-- Generator: Adobe Illustrator 23.0.2, SVG Export Plug-In . SVG Version: 6.00 Build 0)  -->
<svg version="1.1" id="Layer_1" xmlns="http://www.w3.org/2000/svg" xmlns:xlink="http://www.w3.org/1999/xlink" x="0px" y="0px"
	 viewBox="0 0 224 82" style="enable-background:new 0 0 224 82;" xml:space="preserve">
<style type="text/css">
	.st0{fill:#FFFFFF;}
	.st1{opacity:0.2;fill:#FFFFFF;enable-background:new    ;}
</style>
<path class="st0" d="M112.7,53.7c-1.7,0-3.3-0.3-4.7-0.9c-1.4-0.6-2.5-1.5-3.3-2.6c-0.8-1.1-1.2-2.4-1.2-3.9h4.6
	c0.1,1.1,0.5,2,1.3,2.8c0.8,0.7,1.9,1.1,3.3,1.1c1.5,0,2.6-0.3,3.4-1c0.8-0.7,1.2-1.6,1.2-2.8c0-0.9-0.3-1.6-0.8-2.1
	c-0.5-0.5-1.1-1-1.9-1.3c-0.7-0.3-1.8-0.6-3.1-1c-1.7-0.4-3.1-0.9-4.2-1.3c-1-0.5-1.9-1.2-2.7-2.2c-0.7-1-1.1-2.3-1.1-3.9
	c0-1.5,0.4-2.8,1.1-3.9c0.7-1.1,1.8-2,3.1-2.6c1.3-0.6,2.9-0.9,4.7-0.9c2.5,0,4.6,0.6,6.2,1.9c1.6,1.2,2.5,3,2.7,5.2h-4.7
	c-0.1-0.9-0.5-1.8-1.3-2.4c-0.8-0.7-1.9-1-3.3-1c-1.2,0-2.2,0.3-3,0.9c-0.8,0.6-1.2,1.5-1.2,2.7c0,0.8,0.2,1.5,0.7,2
	c0.5,0.5,1.1,0.9,1.9,1.2c0.7,0.3,1.8,0.6,3.1,1c1.7,0.5,3.1,0.9,4.2,1.4c1.1,0.5,2,1.2,2.8,2.2c0.8,1,1.2,2.3,1.2,3.9
	c0,1.3-0.4,2.6-1.1,3.7c-0.7,1.2-1.7,2.1-3.1,2.8C116.2,53.4,114.6,53.7,112.7,53.7z M131.7,36.3v11.4c0,0.8,0.2,1.3,0.5,1.7
	c0.4,0.3,1,0.5,1.9,0.5h2.6v3.6h-3.4c-1.9,0-3.4-0.4-4.4-1.3c-1-0.9-1.5-2.4-1.5-4.4V36.3H125v-3.5h2.4v-5.1h4.3v5.1h5v3.5H131.7z
	 M149.6,53.8c-1.9,0-3.7-0.4-5.3-1.3c-1.6-0.9-2.8-2.1-3.7-3.7c-0.9-1.6-1.3-3.5-1.3-5.6c0-2.1,0.5-4,1.4-5.6
	c0.9-1.6,2.2-2.9,3.8-3.7c1.6-0.9,3.4-1.3,5.4-1.3c2,0,3.8,0.4,5.4,1.3c1.6,0.9,2.9,2.1,3.8,3.7c0.9,1.6,1.4,3.5,1.4,5.6
	c0,2.1-0.5,4-1.4,5.6c-0.9,1.6-2.2,2.9-3.9,3.8C153.4,53.4,151.6,53.8,149.6,53.8z M149.6,50.1c1.1,0,2.1-0.3,3.1-0.8
	c1-0.5,1.8-1.3,2.4-2.4c0.6-1,0.9-2.3,0.9-3.8c0-1.5-0.3-2.8-0.9-3.8c-0.6-1-1.3-1.8-2.3-2.4c-0.9-0.5-2-0.8-3.1-0.8
	c-1.1,0-2.1,0.3-3.1,0.8c-0.9,0.5-1.7,1.3-2.2,2.4c-0.5,1-0.8,2.3-0.8,3.8c0,2.2,0.6,3.9,1.7,5.2C146.4,49.5,147.9,50.1,149.6,50.1z
	 M168.8,35.8c0.6-1,1.4-1.9,2.5-2.4c1-0.6,2.3-0.9,3.7-0.9v4.4h-1.1c-1.7,0-2.9,0.4-3.8,1.3c-0.8,0.8-1.3,2.3-1.3,4.4v10.9h-4.3
	V32.9h4.3V35.8z M197.8,42.7c0,0.8,0,1.5-0.1,2.1h-15.8c0.1,1.6,0.7,3,1.8,4c1.1,1,2.4,1.5,4,1.5c2.3,0,3.9-1,4.9-2.9h4.6
	c-0.6,1.9-1.8,3.5-3.4,4.7c-1.6,1.2-3.6,1.8-6.1,1.8c-2,0-3.7-0.4-5.3-1.3c-1.5-0.9-2.8-2.1-3.7-3.7c-0.9-1.6-1.3-3.5-1.3-5.6
	c0-2.1,0.4-4,1.3-5.6c0.9-1.6,2.1-2.9,3.6-3.7c1.6-0.9,3.4-1.3,5.4-1.3c1.9,0,3.7,0.4,5.2,1.3c1.5,0.8,2.7,2,3.6,3.6
	C197.3,38.9,197.8,40.7,197.8,42.7z M193.3,41.3c0-1.6-0.6-2.8-1.7-3.8c-1.1-0.9-2.5-1.4-4.1-1.4c-1.5,0-2.7,0.5-3.8,1.4
	c-1,0.9-1.7,2.2-1.9,3.8H193.3z M206.2,27.5v26H202v-26H206.2z M216.8,36.3v11.4c0,0.8,0.2,1.3,0.5,1.7c0.4,0.3,1,0.5,1.9,0.5h2.6
	v3.6h-3.4c-1.9,0-3.4-0.4-4.4-1.3c-1-0.9-1.5-2.4-1.5-4.4V36.3h-2.4v-3.5h2.4v-5.1h4.3v5.1h5v3.5H216.8z"/>
<path class="st1" d="M37.4,0L37.4,0c20.7,0,37.4,16.8,37.4,37.4v0c0,20.7-16.8,37.4-37.4,37.4h0C16.8,74.8,0,58.1,0,37.4v0
	C0,16.8,16.8,0,37.4,0z"/>
<path class="st0" d="M57.7,31.2L57.7,31.2c13.8,0,24.9,11.2,24.9,24.9l0,0c0,13.8-11.2,24.9-24.9,24.9h0
	c-13.8,0-24.9-11.2-24.9-24.9l0,0C32.7,42.3,43.9,31.2,57.7,31.2z"/>
<g>
	<path class="st0" d="M99.7,45.3c0,0.6-0.1,1.2-0.4,1.9c-0.3,0.7-0.7,1.3-1.3,2c-0.6,0.6-1.4,1.2-2.3,1.6c-1,0.4-2.1,0.6-3.3,0.6
		c-1,0-1.8-0.1-2.6-0.3c-0.8-0.2-1.5-0.5-2.1-0.8c-0.6-0.4-1.2-0.9-1.8-1.5c-0.5-0.6-0.9-1.2-1.2-1.9c-0.3-0.7-0.6-1.5-0.8-2.3
		c-0.2-0.8-0.3-1.7-0.3-2.6c0-1.5,0.2-2.8,0.6-3.9c0.4-1.2,1-2.1,1.8-3c0.8-0.8,1.7-1.4,2.8-1.9c1.1-0.4,2.2-0.6,3.4-0.6
		c1.5,0,2.8,0.3,3.9,0.9c1.1,0.6,2,1.3,2.6,2.2c0.6,0.9,0.9,1.7,0.9,2.4c0,0.4-0.1,0.8-0.4,1.1s-0.7,0.5-1.1,0.5
		c-0.5,0-0.8-0.1-1.1-0.3s-0.5-0.6-0.8-1.2c-0.5-0.9-1-1.6-1.7-2c-0.6-0.4-1.4-0.7-2.4-0.7c-1.5,0-2.7,0.6-3.6,1.7s-1.3,2.8-1.3,4.9
		c0,1.4,0.2,2.6,0.6,3.5c0.4,0.9,1,1.6,1.7,2.1s1.6,0.7,2.6,0.7c1.1,0,2-0.3,2.7-0.8c0.7-0.5,1.3-1.3,1.7-2.3
		c0.2-0.5,0.4-0.9,0.6-1.2s0.6-0.5,1.1-0.5c0.4,0,0.8,0.2,1.1,0.5S99.7,44.9,99.7,45.3z"/>
	<path class="st0" d="M102.8,49.3V34.7c0-0.7,0.2-1.2,0.5-1.5c0.3-0.3,0.7-0.5,1.2-0.5s0.9,0.2,1.2,0.5s0.5,0.9,0.5,1.5v14.7
		c0,0.7-0.2,1.2-0.5,1.5s-0.7,0.5-1.2,0.5c-0.5,0-0.9-0.2-1.2-0.5C103,50.5,102.8,50,102.8,49.3z"/>
	<path class="st0" d="M122.4,44.5c0,1-0.2,1.9-0.5,2.8c-0.3,0.9-0.8,1.6-1.4,2.2s-1.3,1.1-2.1,1.4c-0.8,0.3-1.8,0.5-2.8,0.5
		c-1,0-1.9-0.2-2.8-0.5c-0.8-0.3-1.5-0.8-2.1-1.4s-1.1-1.3-1.4-2.2c-0.3-0.8-0.5-1.8-0.5-2.8c0-1,0.2-2,0.5-2.8
		c0.3-0.9,0.8-1.6,1.4-2.2c0.6-0.6,1.3-1.1,2.1-1.4c0.8-0.3,1.8-0.5,2.8-0.5c1,0,2,0.2,2.8,0.5c0.8,0.3,1.5,0.8,2.1,1.4
		c0.6,0.6,1,1.3,1.4,2.2C122.2,42.6,122.4,43.5,122.4,44.5z M119,44.5c0-1.4-0.3-2.5-0.9-3.2s-1.4-1.2-2.4-1.2
		c-0.7,0-1.2,0.2-1.7,0.5s-0.9,0.8-1.2,1.5c-0.3,0.7-0.4,1.5-0.4,2.3c0,0.9,0.1,1.7,0.4,2.3c0.3,0.7,0.7,1.2,1.2,1.5
		s1.1,0.5,1.8,0.5c1,0,1.8-0.4,2.4-1.2S119,45.9,119,44.5z"/>
	<path class="st0" d="M133.8,49.5V49c-0.4,0.5-0.8,0.9-1.3,1.3c-0.4,0.3-0.9,0.6-1.5,0.8c-0.5,0.2-1.1,0.3-1.8,0.3
		c-0.8,0-1.6-0.2-2.2-0.5c-0.6-0.3-1.2-0.8-1.5-1.4c-0.4-0.7-0.6-1.8-0.6-3.1v-6.7c0-0.7,0.2-1.2,0.5-1.5c0.3-0.3,0.7-0.5,1.2-0.5
		c0.5,0,0.9,0.2,1.2,0.5c0.3,0.3,0.5,0.8,0.5,1.5v5.4c0,0.8,0.1,1.4,0.2,2c0.1,0.5,0.4,1,0.7,1.3s0.8,0.5,1.4,0.5
		c0.6,0,1.1-0.2,1.6-0.5s0.9-0.8,1.1-1.3c0.2-0.5,0.3-1.5,0.3-3.1v-4.1c0-0.7,0.2-1.2,0.5-1.5c0.3-0.3,0.7-0.5,1.2-0.5
		s0.9,0.2,1.2,0.5c0.3,0.3,0.5,0.8,0.5,1.5v9.8c0,0.6-0.1,1.1-0.4,1.4c-0.3,0.3-0.7,0.5-1.1,0.5c-0.5,0-0.8-0.2-1.1-0.5
		C134,50.5,133.8,50.1,133.8,49.5z"/>
	<path class="st0" d="M149.6,49.4v-0.3c-0.5,0.5-0.9,0.9-1.3,1.3c-0.4,0.3-0.9,0.6-1.4,0.7c-0.5,0.2-1.1,0.3-1.7,0.3
		c-0.8,0-1.6-0.2-2.2-0.5s-1.3-0.8-1.8-1.5c-0.5-0.6-0.9-1.4-1.1-2.2c-0.3-0.9-0.4-1.8-0.4-2.8c0-2.1,0.5-3.8,1.5-4.9
		s2.4-1.8,4.1-1.8c1,0,1.8,0.2,2.5,0.5c0.7,0.3,1.3,0.8,2,1.5v-5c0-0.7,0.1-1.2,0.4-1.6c0.3-0.4,0.7-0.5,1.2-0.5
		c0.5,0,0.9,0.2,1.2,0.5c0.3,0.3,0.4,0.8,0.4,1.4v14.9c0,0.6-0.1,1.1-0.4,1.4c-0.3,0.3-0.7,0.5-1.2,0.5c-0.5,0-0.8-0.2-1.1-0.5
		C149.8,50.5,149.6,50.1,149.6,49.4z M143,44.5c0,0.9,0.1,1.7,0.4,2.3s0.7,1.1,1.2,1.5c0.5,0.3,1,0.5,1.6,0.5c0.6,0,1.1-0.2,1.6-0.5
		s0.9-0.8,1.2-1.4c0.3-0.6,0.4-1.4,0.4-2.4c0-0.9-0.1-1.7-0.4-2.3c-0.3-0.6-0.7-1.1-1.2-1.5c-0.5-0.3-1-0.5-1.6-0.5
		c-0.6,0-1.2,0.2-1.7,0.5c-0.5,0.4-0.9,0.9-1.1,1.5C143.1,42.8,143,43.6,143,44.5z"/>
	<path class="st0" d="M167.6,34.8l7.1,10.7V34.7c0-0.7,0.2-1.2,0.5-1.6c0.3-0.4,0.7-0.5,1.2-0.5c0.5,0,0.9,0.2,1.3,0.5
		s0.5,0.9,0.5,1.6V49c0,1.6-0.7,2.4-2,2.4c-0.3,0-0.6,0-0.9-0.1c-0.3-0.1-0.5-0.2-0.7-0.5c-0.2-0.2-0.4-0.4-0.6-0.7
		c-0.2-0.3-0.4-0.6-0.6-0.8l-6.9-10.6v10.6c0,0.7-0.2,1.2-0.5,1.6c-0.3,0.4-0.7,0.5-1.2,0.5c-0.5,0-0.9-0.2-1.3-0.5
		c-0.3-0.4-0.5-0.9-0.5-1.6v-14c0-0.6,0.1-1.1,0.2-1.4c0.2-0.4,0.4-0.7,0.8-0.9c0.4-0.2,0.8-0.4,1.2-0.4c0.3,0,0.6,0.1,0.8,0.2
		c0.2,0.1,0.4,0.3,0.6,0.4s0.4,0.4,0.5,0.7C167.2,34.2,167.4,34.5,167.6,34.8z"/>
	<path class="st0" d="M191.3,45.3h-6.6c0,0.8,0.2,1.4,0.5,2c0.3,0.6,0.7,1,1.2,1.3c0.5,0.3,1.1,0.4,1.7,0.4c0.4,0,0.8,0,1.1-0.1
		c0.3-0.1,0.7-0.2,1-0.4c0.3-0.2,0.6-0.4,0.9-0.7c0.3-0.2,0.6-0.5,1-0.9c0.2-0.1,0.4-0.2,0.7-0.2c0.3,0,0.6,0.1,0.8,0.3
		c0.2,0.2,0.3,0.5,0.3,0.8c0,0.3-0.1,0.7-0.4,1.1c-0.2,0.4-0.6,0.8-1.1,1.2c-0.5,0.4-1.1,0.7-1.8,0.9c-0.7,0.2-1.6,0.4-2.5,0.4
		c-2.2,0-3.9-0.6-5.1-1.9s-1.8-2.9-1.8-5c0-1,0.1-1.9,0.4-2.8c0.3-0.9,0.7-1.6,1.3-2.2c0.6-0.6,1.3-1.1,2.1-1.4
		c0.8-0.3,1.8-0.5,2.8-0.5c1.3,0,2.5,0.3,3.4,0.8c0.9,0.6,1.7,1.3,2.1,2.2s0.7,1.8,0.7,2.7c0,0.9-0.2,1.4-0.7,1.7
		C192.8,45.2,192.2,45.3,191.3,45.3z M184.7,43.4h6.1c-0.1-1.2-0.4-2-0.9-2.6s-1.3-0.9-2.1-0.9c-0.8,0-1.5,0.3-2.1,0.9
		C185.1,41.4,184.8,42.3,184.7,43.4z"/>
	<path class="st0" d="M207.8,47c0,0.9-0.2,1.7-0.7,2.4c-0.5,0.7-1.1,1.2-2,1.5c-0.9,0.3-2,0.5-3.2,0.5c-1.2,0-2.3-0.2-3.1-0.6
		c-0.9-0.4-1.5-0.8-1.9-1.4s-0.6-1.1-0.6-1.7c0-0.4,0.1-0.7,0.4-1s0.6-0.4,1-0.4c0.4,0,0.6,0.1,0.8,0.3c0.2,0.2,0.4,0.4,0.5,0.7
		c0.3,0.6,0.8,1.1,1.2,1.4c0.5,0.3,1.1,0.4,2,0.4c0.7,0,1.2-0.2,1.7-0.5s0.7-0.6,0.7-1c0-0.6-0.2-1-0.7-1.3
		c-0.5-0.3-1.2-0.5-2.2-0.8c-1.2-0.3-2.1-0.6-2.8-0.9c-0.7-0.3-1.3-0.7-1.8-1.3c-0.4-0.5-0.7-1.2-0.7-1.9c0-0.7,0.2-1.3,0.6-1.9
		c0.4-0.6,1-1.1,1.8-1.4s1.7-0.5,2.9-0.5c0.9,0,1.7,0.1,2.4,0.3s1.3,0.4,1.7,0.7c0.5,0.3,0.8,0.6,1.1,1c0.2,0.4,0.4,0.7,0.4,1.1
		c0,0.4-0.1,0.7-0.4,1c-0.3,0.2-0.6,0.4-1.1,0.4c-0.3,0-0.6-0.1-0.9-0.3c-0.2-0.2-0.5-0.5-0.8-0.9c-0.3-0.3-0.6-0.6-0.9-0.8
		c-0.3-0.2-0.8-0.3-1.4-0.3c-0.6,0-1.1,0.1-1.5,0.4c-0.4,0.3-0.6,0.6-0.6,1c0,0.4,0.1,0.6,0.4,0.9s0.7,0.4,1.2,0.6
		c0.5,0.1,1.2,0.3,2.1,0.5c1,0.3,1.9,0.6,2.6,0.9s1.2,0.8,1.5,1.3S207.8,46.3,207.8,47z"/>
	<path class="st0" d="M210.9,37.9h0.4v-2c0-0.5,0-1,0-1.3c0-0.3,0.1-0.6,0.2-0.8c0.1-0.2,0.3-0.4,0.6-0.6s0.5-0.2,0.8-0.2
		c0.4,0,0.8,0.2,1.2,0.5c0.2,0.2,0.4,0.5,0.4,0.8c0.1,0.3,0.1,0.8,0.1,1.3v2.3h1.2c0.5,0,0.8,0.1,1.1,0.3s0.4,0.5,0.4,0.9
		c0,0.5-0.2,0.8-0.5,1c-0.4,0.2-0.9,0.3-1.5,0.3h-0.6v6.2c0,0.5,0,0.9,0.1,1.2s0.1,0.5,0.3,0.7s0.4,0.3,0.8,0.3c0.2,0,0.5,0,0.8-0.1
		s0.6-0.1,0.8-0.1c0.3,0,0.5,0.1,0.7,0.3s0.3,0.5,0.3,0.8c0,0.5-0.3,1-0.9,1.3s-1.5,0.4-2.6,0.4c-1.1,0-1.9-0.2-2.4-0.5
		c-0.5-0.4-0.9-0.8-1.1-1.5c-0.2-0.6-0.3-1.5-0.3-2.5v-6.5h-0.4c-0.5,0-0.9-0.1-1.1-0.3c-0.3-0.2-0.4-0.5-0.4-0.9
		c0-0.4,0.1-0.6,0.4-0.9S210.3,37.9,210.9,37.9z"/>
</g>
</svg>
